<mxfile host="65bd71144e">
    <diagram id="JDY2Fr_pBtrw_9A8xXfN" name="ページ1">
        <mxGraphModel dx="1118" dy="931" grid="1" gridSize="10" guides="1" tooltips="1" connect="1" arrows="1" fold="1" page="1" pageScale="1" pageWidth="1200" pageHeight="1600" math="0" shadow="0">
            <root>
                <mxCell id="0"/>
                <mxCell id="1" parent="0"/>
                <mxCell id="10" value="" style="group" vertex="1" connectable="0" parent="1">
                    <mxGeometry x="10" y="1030" width="180" height="220" as="geometry"/>
                </mxCell>
                <mxCell id="11" value="・house_name&lt;br&gt;・scheduled_completion_date&lt;br&gt;・status_id&lt;br&gt;・created_at&lt;br&gt;・updated_at&lt;br&gt;・deleted_at" style="whiteSpace=wrap;html=1;align=left;verticalAlign=top;" vertex="1" parent="10">
                    <mxGeometry y="62.85714285714286" width="180" height="157.14285714285714" as="geometry"/>
                </mxCell>
                <mxCell id="12" value="ID" style="whiteSpace=wrap;html=1;align=left;" vertex="1" parent="10">
                    <mxGeometry y="31.42857142857143" width="180" height="31.42857142857143" as="geometry"/>
                </mxCell>
                <mxCell id="13" value="&lt;div&gt;&lt;b style=&quot;background-color: initial; font-size: 16px; font-family: arial, sans-serif;&quot;&gt;&lt;font color=&quot;#ffffff&quot;&gt;image&lt;/font&gt;&lt;/b&gt;&lt;br&gt;&lt;/div&gt;&lt;div&gt;&lt;b style=&quot;color: rgb(255, 255, 255); font-family: arial, sans-serif;&quot;&gt;&lt;font style=&quot;font-size: 9px;&quot;&gt;(画像を管理)&lt;/font&gt;&lt;/b&gt;&lt;b style=&quot;background-color: initial; font-size: 16px; font-family: arial, sans-serif;&quot;&gt;&lt;font color=&quot;#ffffff&quot;&gt;&lt;br&gt;&lt;/font&gt;&lt;/b&gt;&lt;/div&gt;" style="whiteSpace=wrap;html=1;align=left;strokeColor=none;" vertex="1" parent="10">
                    <mxGeometry width="180" height="31.42857142857143" as="geometry"/>
                </mxCell>
                <mxCell id="19" value="・title&lt;br&gt;・status_id&lt;br&gt;・text&lt;br&gt;・status_id&lt;br&gt;・manager_id&lt;br&gt;・created_at&lt;br&gt;・updated_at&lt;br&gt;・deleted_at" style="whiteSpace=wrap;html=1;align=left;verticalAlign=top;" vertex="1" parent="1">
                    <mxGeometry x="1000" y="750" width="180" height="150" as="geometry"/>
                </mxCell>
                <mxCell id="20" value="ID" style="whiteSpace=wrap;html=1;align=left;" vertex="1" parent="1">
                    <mxGeometry x="1000" y="720" width="180" height="30" as="geometry"/>
                </mxCell>
                <mxCell id="21" value="&lt;font face=&quot;arial, sans-serif&quot; color=&quot;#ffffff&quot;&gt;&lt;span style=&quot;font-size: 16px;&quot;&gt;&lt;b&gt;comments&lt;br&gt;&lt;/b&gt;&lt;/span&gt;&lt;/font&gt;&lt;b style=&quot;color: rgb(255, 255, 255); font-family: arial, sans-serif;&quot;&gt;&lt;font style=&quot;font-size: 9px;&quot;&gt;(コメントを管理)&lt;/font&gt;&lt;/b&gt;&lt;font face=&quot;arial, sans-serif&quot; color=&quot;#ffffff&quot;&gt;&lt;span style=&quot;font-size: 16px;&quot;&gt;&lt;b&gt;&lt;br&gt;&lt;/b&gt;&lt;/span&gt;&lt;/font&gt;" style="whiteSpace=wrap;html=1;align=left;strokeColor=none;" vertex="1" parent="1">
                    <mxGeometry x="1000" y="670" width="180" height="50" as="geometry"/>
                </mxCell>
                <mxCell id="30" value="" style="group" vertex="1" connectable="0" parent="1">
                    <mxGeometry x="960" y="40" width="180" height="210" as="geometry"/>
                </mxCell>
                <mxCell id="31" value="・idea_content&lt;br&gt;・created_at&lt;br&gt;・updated_at&lt;br&gt;・deleted_at" style="whiteSpace=wrap;html=1;align=left;verticalAlign=top;" vertex="1" parent="30">
                    <mxGeometry y="110" width="180" height="100" as="geometry"/>
                </mxCell>
                <mxCell id="32" value="・id" style="whiteSpace=wrap;html=1;align=left;" vertex="1" parent="30">
                    <mxGeometry y="30" width="180" height="80" as="geometry"/>
                </mxCell>
                <mxCell id="33" value="&lt;div&gt;&lt;font face=&quot;arial, sans-serif&quot; color=&quot;#ffffff&quot;&gt;&lt;span style=&quot;font-size: 16px;&quot;&gt;&lt;b&gt;ideas&lt;/b&gt;&lt;/span&gt;&lt;/font&gt;&lt;/div&gt;" style="whiteSpace=wrap;html=1;align=left;strokeColor=none;" vertex="1" parent="30">
                    <mxGeometry width="180" height="30" as="geometry"/>
                </mxCell>
                <mxCell id="39" value="・state&lt;br&gt;・created_at&lt;br&gt;・updated_at" style="whiteSpace=wrap;html=1;align=left;verticalAlign=top;" vertex="1" parent="1">
                    <mxGeometry x="350" y="1132.857142857143" width="180" height="157.14285714285714" as="geometry"/>
                </mxCell>
                <mxCell id="40" value="ID" style="whiteSpace=wrap;html=1;align=left;" vertex="1" parent="1">
                    <mxGeometry x="350" y="1101.4285714285716" width="180" height="31.42857142857143" as="geometry"/>
                </mxCell>
                <mxCell id="41" value="&lt;font face=&quot;arial, sans-serif&quot; color=&quot;#ffffff&quot;&gt;&lt;span style=&quot;font-size: 16px;&quot;&gt;&lt;b&gt;states&lt;br&gt;&lt;/b&gt;&lt;/span&gt;&lt;/font&gt;&lt;b style=&quot;color: rgb(255, 255, 255); font-family: arial, sans-serif;&quot;&gt;&lt;font style=&quot;font-size: 9px;&quot;&gt;(進捗状況を管理)&lt;/font&gt;&lt;/b&gt;&lt;font face=&quot;arial, sans-serif&quot; color=&quot;#ffffff&quot;&gt;&lt;span style=&quot;font-size: 16px;&quot;&gt;&lt;b&gt;&lt;br&gt;&lt;/b&gt;&lt;/span&gt;&lt;/font&gt;" style="whiteSpace=wrap;html=1;align=left;strokeColor=none;" vertex="1" parent="1">
                    <mxGeometry x="350" y="1060" width="180" height="41.43" as="geometry"/>
                </mxCell>
                <mxCell id="27" value="・category_name&lt;br&gt;・created_at&lt;br&gt;・updated_at" style="whiteSpace=wrap;html=1;align=left;verticalAlign=top;" vertex="1" parent="1">
                    <mxGeometry y="750" width="180" height="150" as="geometry"/>
                </mxCell>
                <mxCell id="28" value="ID" style="whiteSpace=wrap;html=1;align=left;" vertex="1" parent="1">
                    <mxGeometry y="720" width="180" height="30" as="geometry"/>
                </mxCell>
                <mxCell id="29" value="&lt;div&gt;&lt;font face=&quot;arial, sans-serif&quot; color=&quot;#ffffff&quot;&gt;&lt;span style=&quot;font-size: 16px;&quot;&gt;&lt;b&gt;categories&lt;/b&gt;&lt;/span&gt;&lt;/font&gt;&lt;/div&gt;&lt;div&gt;&lt;b style=&quot;color: rgb(255, 255, 255); font-family: arial, sans-serif;&quot;&gt;&lt;font style=&quot;font-size: 9px;&quot;&gt;(カテゴリー(リビング、風呂など)を管理)&lt;/font&gt;&lt;/b&gt;&lt;font face=&quot;arial, sans-serif&quot; color=&quot;#ffffff&quot;&gt;&lt;span style=&quot;font-size: 16px;&quot;&gt;&lt;b&gt;&lt;br&gt;&lt;/b&gt;&lt;/span&gt;&lt;/font&gt;&lt;/div&gt;" style="whiteSpace=wrap;html=1;align=left;strokeColor=none;" vertex="1" parent="1">
                    <mxGeometry y="670" width="180" height="50" as="geometry"/>
                </mxCell>
                <mxCell id="23" value="" style="whiteSpace=wrap;html=1;align=left;verticalAlign=top;" vertex="1" parent="1">
                    <mxGeometry x="710" y="780" width="180" height="120" as="geometry"/>
                </mxCell>
                <mxCell id="24" value="・task_id&lt;br&gt;・comment_id" style="whiteSpace=wrap;html=1;align=left;horizontal=1;verticalAlign=top;" vertex="1" parent="1">
                    <mxGeometry x="710" y="720" width="180" height="60" as="geometry"/>
                </mxCell>
                <mxCell id="25" value="&lt;font face=&quot;arial, sans-serif&quot; color=&quot;#ffffff&quot;&gt;&lt;b style=&quot;&quot;&gt;&lt;span style=&quot;font-size: 16px;&quot;&gt;discussions&lt;/span&gt;&lt;br&gt;&lt;font style=&quot;font-size: 8px;&quot;&gt;タスクとコメントの中間テーブル&lt;/font&gt;&lt;br&gt;&lt;/b&gt;&lt;/font&gt;" style="whiteSpace=wrap;html=1;align=left;strokeColor=none;" vertex="1" parent="1">
                    <mxGeometry x="710" y="670" width="180" height="50" as="geometry"/>
                </mxCell>
                <mxCell id="15" value="・task_title&lt;br&gt;・status_id&lt;br&gt;・task_content&lt;br&gt;・status_id&lt;br&gt;・house_id&lt;br&gt;・manager_id&lt;br&gt;・created_at&lt;br&gt;・updated_at&lt;br&gt;・deleted_at" style="whiteSpace=wrap;html=1;align=left;verticalAlign=top;" vertex="1" parent="1">
                    <mxGeometry x="350" y="742.8571428571429" width="180" height="157.14285714285714" as="geometry"/>
                </mxCell>
                <mxCell id="16" value="ID" style="whiteSpace=wrap;html=1;align=left;" vertex="1" parent="1">
                    <mxGeometry x="350" y="720" width="180" height="22.86" as="geometry"/>
                </mxCell>
                <mxCell id="17" value="&lt;div&gt;&lt;font face=&quot;arial, sans-serif&quot; color=&quot;#ffffff&quot;&gt;&lt;span style=&quot;font-size: 16px;&quot;&gt;&lt;b&gt;tasks&lt;/b&gt;&lt;/span&gt;&lt;/font&gt;&lt;/div&gt;&lt;div&gt;&lt;b style=&quot;color: rgb(255, 255, 255); font-family: arial, sans-serif;&quot;&gt;&lt;font style=&quot;font-size: 9px;&quot;&gt;(タスクを管理)&lt;/font&gt;&lt;/b&gt;&lt;font face=&quot;arial, sans-serif&quot; color=&quot;#ffffff&quot;&gt;&lt;span style=&quot;font-size: 16px;&quot;&gt;&lt;b&gt;&lt;br&gt;&lt;/b&gt;&lt;/span&gt;&lt;/font&gt;&lt;/div&gt;" style="whiteSpace=wrap;html=1;align=left;strokeColor=none;" vertex="1" parent="1">
                    <mxGeometry x="350" y="680" width="180" height="40" as="geometry"/>
                </mxCell>
                <mxCell id="2" value="・house_name&lt;br&gt;・scheduled_completion_date&lt;br&gt;・status_id&lt;br&gt;・created_at&lt;br&gt;・updated_at&lt;br&gt;・deleted_at" style="whiteSpace=wrap;html=1;align=left;verticalAlign=top;" parent="1" vertex="1">
                    <mxGeometry x="50" y="110" width="180" height="150" as="geometry"/>
                </mxCell>
                <mxCell id="3" value="ID" style="whiteSpace=wrap;html=1;align=left;" vertex="1" parent="1">
                    <mxGeometry x="50" y="80" width="180" height="30" as="geometry"/>
                </mxCell>
                <mxCell id="4" value="&lt;font color=&quot;#ffffff&quot; face=&quot;arial, sans-serif&quot;&gt;&lt;span style=&quot;font-size: 16px;&quot;&gt;&lt;b style=&quot;&quot;&gt;houses&lt;br&gt;&lt;/b&gt;&lt;/span&gt;&lt;/font&gt;&lt;b style=&quot;color: rgb(255, 255, 255); font-family: arial, sans-serif;&quot;&gt;&lt;font style=&quot;font-size: 9px;&quot;&gt;(家を管理)&lt;/font&gt;&lt;/b&gt;&lt;font color=&quot;#ffffff&quot; face=&quot;arial, sans-serif&quot;&gt;&lt;span style=&quot;font-size: 16px;&quot;&gt;&lt;b style=&quot;&quot;&gt;&lt;br&gt;&lt;/b&gt;&lt;/span&gt;&lt;/font&gt;" style="whiteSpace=wrap;html=1;align=left;strokeColor=none;" vertex="1" parent="1">
                    <mxGeometry x="50" y="30" width="180" height="50" as="geometry"/>
                </mxCell>
                <mxCell id="46" value="" style="endArrow=none;html=1;fontSize=8;fontColor=#FFFFFF;exitX=1;exitY=0.5;exitDx=0;exitDy=0;" edge="1" parent="1" source="2" target="7">
                    <mxGeometry width="50" height="50" relative="1" as="geometry">
                        <mxPoint x="610" y="340" as="sourcePoint"/>
                        <mxPoint x="360" y="170" as="targetPoint"/>
                    </mxGeometry>
                </mxCell>
                <mxCell id="47" value="" style="group" vertex="1" connectable="0" parent="1">
                    <mxGeometry x="380" y="30" width="180" height="220" as="geometry"/>
                </mxCell>
                <mxCell id="7" value="・name&lt;br&gt;・position&lt;br&gt;・password&lt;br&gt;・created_at&lt;br&gt;・updated_at&lt;br&gt;・deleted_at" style="whiteSpace=wrap;html=1;align=left;verticalAlign=top;" vertex="1" parent="47">
                    <mxGeometry y="110" width="180" height="110" as="geometry"/>
                </mxCell>
                <mxCell id="8" value="house_id&lt;br&gt;ID" style="whiteSpace=wrap;html=1;align=left;" vertex="1" parent="47">
                    <mxGeometry y="50" width="180" height="60" as="geometry"/>
                </mxCell>
                <mxCell id="9" value="&lt;b style=&quot;font-family: arial, sans-serif; font-size: 16px;&quot;&gt;&lt;font style=&quot;&quot; color=&quot;#ffffff&quot;&gt;members&lt;br&gt;&lt;/font&gt;&lt;/b&gt;&lt;b style=&quot;color: rgb(255, 255, 255); font-family: arial, sans-serif;&quot;&gt;&lt;font style=&quot;font-size: 9px;&quot;&gt;(人を管理)&lt;/font&gt;&lt;/b&gt;&lt;b style=&quot;font-family: arial, sans-serif; font-size: 16px;&quot;&gt;&lt;font style=&quot;&quot; color=&quot;#ffffff&quot;&gt;&lt;br&gt;&lt;/font&gt;&lt;/b&gt;" style="whiteSpace=wrap;html=1;align=left;strokeColor=none;" vertex="1" parent="47">
                    <mxGeometry width="180" height="50" as="geometry"/>
                </mxCell>
                <mxCell id="49" value="1" style="text;strokeColor=none;fillColor=none;html=1;fontSize=24;fontStyle=1;verticalAlign=middle;align=center;labelBackgroundColor=none;fontColor=#FFFFFF;" vertex="1" parent="1">
                    <mxGeometry x="220" y="160" width="40" height="20" as="geometry"/>
                </mxCell>
                <mxCell id="50" value="多" style="text;strokeColor=none;fillColor=none;html=1;fontSize=24;fontStyle=1;verticalAlign=middle;align=center;labelBackgroundColor=none;fontColor=#FFFFFF;" vertex="1" parent="1">
                    <mxGeometry x="346" y="165" width="40" height="20" as="geometry"/>
                </mxCell>
                <mxCell id="51" value="" style="endArrow=none;html=1;fontSize=8;fontColor=#FFFFFF;exitX=1.004;exitY=0.378;exitDx=0;exitDy=0;entryX=0;entryY=0.5;entryDx=0;entryDy=0;exitPerimeter=0;" edge="1" parent="1" source="23" target="19">
                    <mxGeometry width="50" height="50" relative="1" as="geometry">
                        <mxPoint x="844" y="625" as="sourcePoint"/>
                        <mxPoint x="994" y="631.25" as="targetPoint"/>
                    </mxGeometry>
                </mxCell>
                <mxCell id="52" value="1" style="text;strokeColor=none;fillColor=none;html=1;fontSize=24;fontStyle=1;verticalAlign=middle;align=center;labelBackgroundColor=none;fontColor=#FFFFFF;" vertex="1" parent="1">
                    <mxGeometry x="970" y="800" width="40" height="20" as="geometry"/>
                </mxCell>
                <mxCell id="53" value="多" style="text;strokeColor=none;fillColor=none;html=1;fontSize=24;fontStyle=1;verticalAlign=middle;align=center;labelBackgroundColor=none;fontColor=#FFFFFF;" vertex="1" parent="1">
                    <mxGeometry x="886" y="800" width="40" height="20" as="geometry"/>
                </mxCell>
                <mxCell id="56" value="" style="endArrow=none;html=1;fontSize=8;fontColor=#FFFFFF;entryX=0;entryY=0.5;entryDx=0;entryDy=0;" edge="1" parent="1" source="15" target="23">
                    <mxGeometry width="50" height="50" relative="1" as="geometry">
                        <mxPoint x="549.9999999999998" y="825.0199999999999" as="sourcePoint"/>
                        <mxPoint x="659.28" y="824.66" as="targetPoint"/>
                    </mxGeometry>
                </mxCell>
                <mxCell id="57" value="多" style="text;strokeColor=none;fillColor=none;html=1;fontSize=24;fontStyle=1;verticalAlign=middle;align=center;labelBackgroundColor=none;fontColor=#FFFFFF;" vertex="1" parent="1">
                    <mxGeometry x="670" y="811.43" width="40" height="20" as="geometry"/>
                </mxCell>
                <mxCell id="58" value="1" style="text;strokeColor=none;fillColor=none;html=1;fontSize=24;fontStyle=1;verticalAlign=middle;align=center;labelBackgroundColor=none;fontColor=#FFFFFF;" vertex="1" parent="1">
                    <mxGeometry x="520" y="800" width="40" height="20" as="geometry"/>
                </mxCell>
                <mxCell id="59" value="" style="whiteSpace=wrap;html=1;align=left;verticalAlign=top;" vertex="1" parent="1">
                    <mxGeometry x="660" y="135" width="180" height="120" as="geometry"/>
                </mxCell>
                <mxCell id="60" value="・id&lt;br&gt;・house_id&lt;br&gt;・member_id&lt;br&gt;・idea_id" style="whiteSpace=wrap;html=1;align=left;horizontal=1;verticalAlign=top;" vertex="1" parent="1">
                    <mxGeometry x="660" y="75" width="180" height="60" as="geometry"/>
                </mxCell>
                <mxCell id="61" value="&lt;font face=&quot;arial, sans-serif&quot; color=&quot;#ffffff&quot;&gt;&lt;b style=&quot;&quot;&gt;&lt;font style=&quot;font-size: 16px;&quot;&gt;menbers_ideas&lt;br&gt;&lt;/font&gt;&lt;font style=&quot;font-size: 8px;&quot;&gt;人とこだわりの中間テーブル&lt;/font&gt;&lt;br&gt;&lt;/b&gt;&lt;/font&gt;" style="whiteSpace=wrap;html=1;align=left;strokeColor=none;" vertex="1" parent="1">
                    <mxGeometry x="660" y="25" width="180" height="50" as="geometry"/>
                </mxCell>
                <mxCell id="62" value="" style="endArrow=none;html=1;fontSize=8;fontColor=#FFFFFF;exitX=1;exitY=0.5;exitDx=0;exitDy=0;entryX=0;entryY=0.5;entryDx=0;entryDy=0;" edge="1" parent="1" source="7" target="59">
                    <mxGeometry width="50" height="50" relative="1" as="geometry">
                        <mxPoint x="590" y="220" as="sourcePoint"/>
                        <mxPoint x="740" y="226.25" as="targetPoint"/>
                    </mxGeometry>
                </mxCell>
                <mxCell id="63" value="多" style="text;strokeColor=none;fillColor=none;html=1;fontSize=24;fontStyle=1;verticalAlign=middle;align=center;labelBackgroundColor=none;fontColor=#FFFFFF;" vertex="1" parent="1">
                    <mxGeometry x="626" y="169" width="40" height="20" as="geometry"/>
                </mxCell>
                <mxCell id="64" value="1" style="text;strokeColor=none;fillColor=none;html=1;fontSize=24;fontStyle=1;verticalAlign=middle;align=center;labelBackgroundColor=none;fontColor=#FFFFFF;" vertex="1" parent="1">
                    <mxGeometry x="550" y="169" width="40" height="20" as="geometry"/>
                </mxCell>
                <mxCell id="67" value="1" style="text;strokeColor=none;fillColor=none;html=1;fontSize=24;fontStyle=1;verticalAlign=middle;align=center;labelBackgroundColor=none;fontColor=#FFFFFF;" vertex="1" parent="1">
                    <mxGeometry x="930" y="175" width="40" height="20" as="geometry"/>
                </mxCell>
                <mxCell id="65" value="" style="endArrow=none;html=1;fontSize=8;fontColor=#FFFFFF;exitX=1;exitY=0.5;exitDx=0;exitDy=0;entryX=0;entryY=0.5;entryDx=0;entryDy=0;" edge="1" parent="1" source="59" target="31">
                    <mxGeometry width="50" height="50" relative="1" as="geometry">
                        <mxPoint x="890" y="212.58" as="sourcePoint"/>
                        <mxPoint x="920" y="220" as="targetPoint"/>
                    </mxGeometry>
                </mxCell>
                <mxCell id="66" value="多" style="text;strokeColor=none;fillColor=none;html=1;fontSize=24;fontStyle=1;verticalAlign=middle;align=center;labelBackgroundColor=none;fontColor=#FFFFFF;" vertex="1" parent="1">
                    <mxGeometry x="834" y="165" width="40" height="20" as="geometry"/>
                </mxCell>
                <mxCell id="69" value="" style="endArrow=none;html=1;fontSize=8;fontColor=#FFFFFF;entryX=0;entryY=0.5;entryDx=0;entryDy=0;exitX=1;exitY=0.5;exitDx=0;exitDy=0;" edge="1" parent="1" source="27" target="15">
                    <mxGeometry width="50" height="50" relative="1" as="geometry">
                        <mxPoint x="230" y="879.9990476190475" as="sourcePoint"/>
                        <mxPoint x="410" y="892.38" as="targetPoint"/>
                    </mxGeometry>
                </mxCell>
                <mxCell id="70" value="1" style="text;strokeColor=none;fillColor=none;html=1;fontSize=24;fontStyle=1;verticalAlign=middle;align=center;labelBackgroundColor=none;fontColor=#FFFFFF;" vertex="1" parent="1">
                    <mxGeometry x="170" y="797.43" width="40" height="20" as="geometry"/>
                </mxCell>
                <mxCell id="72" value="多" style="text;strokeColor=none;fillColor=none;html=1;fontSize=24;fontStyle=1;verticalAlign=middle;align=center;labelBackgroundColor=none;fontColor=#FFFFFF;" vertex="1" parent="1">
                    <mxGeometry x="315" y="795.43" width="40" height="20" as="geometry"/>
                </mxCell>
                <mxCell id="73" value="" style="endArrow=none;html=1;fontSize=8;fontColor=#FFFFFF;entryX=0.5;entryY=1;entryDx=0;entryDy=0;" edge="1" parent="1" source="41" target="15">
                    <mxGeometry width="50" height="50" relative="1" as="geometry">
                        <mxPoint x="179.99999999999977" y="943.5699999999999" as="sourcePoint"/>
                        <mxPoint x="349.9999999999998" y="939.9985714285715" as="targetPoint"/>
                    </mxGeometry>
                </mxCell>
                <mxCell id="74" value="1" style="text;strokeColor=none;fillColor=none;html=1;fontSize=24;fontStyle=1;verticalAlign=middle;align=center;labelBackgroundColor=none;fontColor=#FFFFFF;" vertex="1" parent="1">
                    <mxGeometry x="440" y="1040" width="40" height="20" as="geometry"/>
                </mxCell>
                <mxCell id="75" value="多" style="text;strokeColor=none;fillColor=none;html=1;fontSize=24;fontStyle=1;verticalAlign=middle;align=center;labelBackgroundColor=none;fontColor=#FFFFFF;" vertex="1" parent="1">
                    <mxGeometry x="436" y="907" width="40" height="20" as="geometry"/>
                </mxCell>
                <mxCell id="82" value="" style="endArrow=none;html=1;fontSize=8;fontColor=#FFFFFF;entryX=0.469;entryY=0.002;entryDx=0;entryDy=0;exitX=0.46;exitY=0.994;exitDx=0;exitDy=0;exitPerimeter=0;entryPerimeter=0;" edge="1" parent="1" source="27" target="13">
                    <mxGeometry width="50" height="50" relative="1" as="geometry">
                        <mxPoint x="90" y="953.5699999999999" as="sourcePoint"/>
                        <mxPoint x="260" y="949.9985714285715" as="targetPoint"/>
                    </mxGeometry>
                </mxCell>
                <mxCell id="83" value="多" style="text;strokeColor=none;fillColor=none;html=1;fontSize=24;fontStyle=1;verticalAlign=middle;align=center;labelBackgroundColor=none;fontColor=#FFFFFF;" vertex="1" parent="1">
                    <mxGeometry x="90" y="1010" width="40" height="20" as="geometry"/>
                </mxCell>
                <mxCell id="84" value="1" style="text;strokeColor=none;fillColor=none;html=1;fontSize=24;fontStyle=1;verticalAlign=middle;align=center;labelBackgroundColor=none;fontColor=#FFFFFF;" vertex="1" parent="1">
                    <mxGeometry x="80" y="907" width="40" height="20" as="geometry"/>
                </mxCell>
                <mxCell id="85" value="・houses_id&lt;br&gt;・category_id&lt;br&gt;・status_id&lt;br&gt;・created_at&lt;br&gt;・updated_at&lt;br&gt;・deleted_at" style="whiteSpace=wrap;html=1;align=left;verticalAlign=top;" vertex="1" parent="1">
                    <mxGeometry x="70" y="430" width="180" height="150" as="geometry"/>
                </mxCell>
                <mxCell id="86" value="ID" style="whiteSpace=wrap;html=1;align=left;" vertex="1" parent="1">
                    <mxGeometry x="70" y="400" width="180" height="30" as="geometry"/>
                </mxCell>
                <mxCell id="87" value="&lt;div&gt;&lt;font face=&quot;arial, sans-serif&quot; color=&quot;#ffffff&quot;&gt;&lt;span style=&quot;font-size: 16px;&quot;&gt;&lt;b&gt;houses_categories&lt;/b&gt;&lt;/span&gt;&lt;/font&gt;&lt;/div&gt;&lt;div&gt;&lt;b style=&quot;color: rgb(255, 255, 255); font-family: arial, sans-serif;&quot;&gt;&lt;font style=&quot;font-size: 9px;&quot;&gt;(家ごとのカテゴリー(リビング、風呂など)の進捗を管理)&lt;/font&gt;&lt;/b&gt;&lt;font face=&quot;arial, sans-serif&quot; color=&quot;#ffffff&quot;&gt;&lt;span style=&quot;font-size: 16px;&quot;&gt;&lt;b&gt;&lt;br&gt;&lt;/b&gt;&lt;/span&gt;&lt;/font&gt;&lt;/div&gt;" style="whiteSpace=wrap;html=1;align=left;strokeColor=none;" vertex="1" parent="1">
                    <mxGeometry x="70" y="350" width="180" height="50" as="geometry"/>
                </mxCell>
                <mxCell id="88" value="" style="endArrow=none;html=1;fontSize=8;fontColor=#FFFFFF;exitX=0.458;exitY=1.007;exitDx=0;exitDy=0;exitPerimeter=0;" edge="1" parent="1" source="85" target="28">
                    <mxGeometry width="50" height="50" relative="1" as="geometry">
                        <mxPoint x="140" y="633.5699999999999" as="sourcePoint"/>
                        <mxPoint x="310" y="629.9985714285715" as="targetPoint"/>
                    </mxGeometry>
                </mxCell>
                <mxCell id="89" value="1" style="text;strokeColor=none;fillColor=none;html=1;fontSize=24;fontStyle=1;verticalAlign=middle;align=center;labelBackgroundColor=none;fontColor=#FFFFFF;" vertex="1" parent="1">
                    <mxGeometry x="150" y="580" width="40" height="20" as="geometry"/>
                </mxCell>
                <mxCell id="90" value="多" style="text;strokeColor=none;fillColor=none;html=1;fontSize=24;fontStyle=1;verticalAlign=middle;align=center;labelBackgroundColor=none;fontColor=#FFFFFF;" vertex="1" parent="1">
                    <mxGeometry x="80" y="650" width="40" height="20" as="geometry"/>
                </mxCell>
                <mxCell id="91" value="" style="endArrow=none;html=1;fontSize=8;fontColor=#FFFFFF;exitX=0.458;exitY=1.007;exitDx=0;exitDy=0;exitPerimeter=0;entryX=0.5;entryY=1;entryDx=0;entryDy=0;" edge="1" parent="1" target="87">
                    <mxGeometry width="50" height="50" relative="1" as="geometry">
                        <mxPoint x="118.18000000000006" y="261.04999999999995" as="sourcePoint"/>
                        <mxPoint x="61.82379343942829" y="400" as="targetPoint"/>
                    </mxGeometry>
                </mxCell>
                <mxCell id="92" value="1" style="text;strokeColor=none;fillColor=none;html=1;fontSize=24;fontStyle=1;verticalAlign=middle;align=center;labelBackgroundColor=none;fontColor=#FFFFFF;" vertex="1" parent="1">
                    <mxGeometry x="130" y="320" width="40" height="20" as="geometry"/>
                </mxCell>
                <mxCell id="94" value="多" style="text;strokeColor=none;fillColor=none;html=1;fontSize=24;fontStyle=1;verticalAlign=middle;align=center;labelBackgroundColor=none;fontColor=#FFFFFF;" vertex="1" parent="1">
                    <mxGeometry x="80" y="260" width="40" height="20" as="geometry"/>
                </mxCell>
            </root>
        </mxGraphModel>
    </diagram>
</mxfile>